<?xml version="1.0" standalone="no"?><!DOCTYPE svg PUBLIC "-//W3C//DTD SVG 1.1//EN" "http://www.w3.org/Graphics/SVG/1.1/DTD/svg11.dtd"><svg t="1594292613543" class="icon" viewBox="0 0 1336 1024" version="1.1" xmlns="http://www.w3.org/2000/svg" p-id="4097" width="41.75" height="32" xmlns:xlink="http://www.w3.org/1999/xlink"><defs><style type="text/css"></style></defs><path d="M1024 0H284.444444a113.777778 113.777778 0 0 0-113.777777 113.777778v512a56.888889 56.888889 0 0 0 56.888889 56.888889h853.333333a56.888889 56.888889 0 0 0 56.888889-56.888889V113.777778a113.777778 113.777778 0 0 0-113.777778-113.777778zM284.444444 113.777778h739.555556v455.111111H284.444444V113.777778z" fill="#1296db" p-id="4098"></path><path d="M1083.278222 568.888889h-853.333333a56.888889 56.888889 0 0 0-50.716445 31.175111l-173.084444 341.333333A56.888889 56.888889 0 0 0 56.888889 1024h1199.473778a56.888889 56.888889 0 0 0 50.716444-82.602667l-173.056-341.333333A56.888889 56.888889 0 0 0 1083.278222 568.888889z m-34.929778 113.777778l115.370667 227.555555H149.504l115.370667-227.555555h783.473777z" fill="#1296db" p-id="4099"></path></svg>